<svg viewBox="0 0 500 500" xmlns="http://www.w3.org/2000/svg">
  <path d="M 323.816 272.393 C 307.63 272.393 293.119 279.564 283.182 290.854 L 257.719 272.828 C 260.422 265.386 261.974 257.395 261.974 249.031 C 261.974 240.812 260.476 232.955 257.862 225.623 L 283.268 207.788 C 293.204 219.021 307.677 226.153 323.816 226.153 C 353.691 226.153 378 201.848 378 171.969 C 378 142.09 353.691 117.785 323.816 117.785 C 293.941 117.785 269.632 142.09 269.632 171.969 C 269.632 177.317 270.44 182.474 271.89 187.358 L 246.467 205.202 C 235.847 192.027 220.556 182.828 203.134 180.02 L 203.134 149.38 C 227.678 144.225 246.171 122.418 246.171 96.361 C 246.171 66.482 221.862 42.177 191.987 42.177 C 162.112 42.177 137.803 66.482 137.803 96.361 C 137.803 122.069 155.817 143.607 179.87 149.13 L 179.87 180.168 C 147.044 185.93 122 214.578 122 249.031 C 122 283.652 147.292 312.405 180.355 317.971 L 180.355 350.745 C 156.056 356.086 137.803 377.756 137.803 403.639 C 137.803 433.518 162.112 457.823 191.987 457.823 C 221.862 457.823 246.171 433.518 246.171 403.639 C 246.171 377.756 227.918 356.086 203.619 350.745 L 203.619 317.97 C 220.354 315.151 235.494 306.346 246.219 293.194 L 271.852 311.337 C 270.429 316.177 269.632 321.283 269.632 326.577 C 269.632 356.456 293.941 380.761 323.816 380.761 C 353.691 380.761 378 356.456 378 326.577 C 378 296.698 353.691 272.393 323.816 272.393 Z M 323.816 145.698 C 338.303 145.698 350.086 157.486 350.086 171.969 C 350.086 186.452 338.303 198.239 323.816 198.239 C 309.329 198.239 297.546 186.452 297.546 171.969 C 297.546 157.486 309.329 145.698 323.816 145.698 Z M 165.716 96.361 C 165.716 81.878 177.5 70.091 191.987 70.091 C 206.474 70.091 218.257 81.878 218.257 96.361 C 218.257 110.844 206.474 122.631 191.987 122.631 C 177.5 122.631 165.716 110.844 165.716 96.361 Z M 218.257 403.639 C 218.257 418.122 206.474 429.909 191.987 429.909 C 177.5 429.909 165.716 418.122 165.716 403.639 C 165.716 389.156 177.5 377.369 191.987 377.369 C 206.474 377.369 218.257 389.156 218.257 403.639 Z M 191.985 285.669 C 171.78 285.669 155.343 269.235 155.343 249.031 C 155.343 228.826 171.78 212.389 191.985 212.389 C 212.189 212.389 228.626 228.826 228.626 249.031 C 228.626 269.235 212.189 285.669 191.985 285.669 Z M 323.816 352.848 C 309.329 352.848 297.546 341.06 297.546 326.577 C 297.546 312.094 309.329 300.307 323.816 300.307 C 338.303 300.307 350.086 312.094 350.086 326.577 C 350.086 341.06 338.303 352.848 323.816 352.848 Z"/>
</svg>
